<?xml version="1.0" encoding="UTF-8"?>
<svg id="uuid-e3779abe-e7e8-469e-84d0-6e3e8446bfe5" data-name="Layer 1" xmlns="http://www.w3.org/2000/svg" viewBox="0 0 20.76 26.19">
  <defs>
    <style>
      .uuid-16c67696-91eb-4c68-8eb8-58b0a9616431 {
        fill: #f26325;
      }

      .uuid-6e2b03ef-6038-49fc-9061-68f3792d6cd1 {
        fill: #3ebfb8;
      }

      .uuid-307f7737-afd3-44cf-887f-04ede66a6803 {
        fill: #77bfb8;
      }

      .uuid-6cc759af-a200-4a11-ac54-58f94aa0a232 {
        fill: #b9772a;
      }
    </style>
  </defs>
  <path class="uuid-6cc759af-a200-4a11-ac54-58f94aa0a232" d="m6.77,14.17c-.02-1.47.25-2.41,1.08-3.36.62-.71,1.05-2.62,2.09-3.28,1.04-.66,2.29-1,3.75-1.02,1.59-.02,2.9.3,3.94.96s1.81,1.55,2.33,2.69c.51,1.14.78,2.43.8,3.87.01.96-.11,1.9-.37,2.81s-.67,1.74-1.22,2.47c-.55.73-1.27,1.32-2.15,1.75s-1.94.66-3.17.68c-1.49.02-2.76-.28-3.81-.89-1.05-.61-1.85-1.48-2.4-2.62-.55-1.13-.84-2.48-.86-4.05Zm2.33-.39c.01,1.36.2,2.55.56,3.56.36,1.01.9,1.8,1.62,2.36.72.56,1.63.83,2.73.82.99-.01,1.81-.28,2.48-.8.66-.52,1.15-1.24,1.47-2.16.32-.92.48-1.98.47-3.18-.02-1.38-.21-2.57-.57-3.58-.37-1-.91-1.78-1.63-2.32s-1.63-.8-2.73-.79c-1.05.01-1.9.3-2.55.85-.65.56-1.12,1.29-1.42,2.21-.3.92-.44,1.92-.43,3.02Zm11.46,12.25l-2.47.03c-.45,0-.79-.03-1.02-.11s-.42-.21-.58-.4c-.16-.19-.36-.45-.61-.78-.31-.44-.59-.82-.84-1.16s-.49-.68-.74-1.02c-.25-.34-.53-.72-.84-1.15l2.29-.34,2.34,3.06c.08.11.2.23.37.38.16.15.32.24.47.28l1.63.45v.76Z"/>
  <path class="uuid-16c67696-91eb-4c68-8eb8-58b0a9616431" d="m6.75,14.14c-.02-1.47.25-2.41,1.08-3.36.62-.71,1.05-2.62,2.09-3.28,1.04-.66,2.29-1,3.75-1.02,1.59-.02,2.9.3,3.94.96s1.81,1.55,2.33,2.69c.51,1.14.78,2.43.8,3.87.01.96-.11,1.9-.37,2.81s-.67,1.74-1.22,2.47c-.55.73-1.27,1.32-2.15,1.75s-1.94.66-3.17.68c-1.49.02-2.76-.28-3.81-.89-1.05-.61-1.85-1.48-2.4-2.62-.55-1.13-.84-2.48-.86-4.05Zm2.33-.39c.01,1.36.2,2.55.56,3.56.36,1.01.9,1.8,1.62,2.36.72.56,1.63.83,2.73.82.99-.01,1.81-.28,2.48-.8.66-.52,1.15-1.24,1.47-2.16.32-.92.48-1.98.47-3.18-.02-1.38-.21-2.57-.57-3.58-.37-1-.91-1.78-1.63-2.32s-1.63-.8-2.73-.79c-1.05.01-1.9.3-2.55.85-.65.56-1.12,1.29-1.42,2.21-.3.92-.44,1.92-.43,3.02Zm11.68,12.41l-2.47.03c-.45,0-.79-.03-1.02-.11s-.42-.21-.58-.4c-.16-.19-.36-.45-.61-.78-.31-.44-.59-.82-.84-1.16s-.49-.68-.74-1.02c-.25-.34-.53-.72-.84-1.15l2.29-.34,2.34,3.06c.08.11.2.23.37.38.16.15.32.24.47.28l1.63.45v.76Z"/>
  <path class="uuid-16c67696-91eb-4c68-8eb8-58b0a9616431" d="m6.74,13.75c-.02-1.47.25-2.41,1.08-3.36.62-.71,1.05-2.62,2.09-3.28,1.04-.66,2.29-1,3.75-1.02,1.59-.02,2.9.3,3.94.96s1.81,1.55,2.33,2.69c.51,1.14.78,2.43.8,3.87.01.96-.11,1.9-.37,2.81s-.67,1.74-1.22,2.47c-.55.73-1.27,1.32-2.15,1.75s-1.94.66-3.17.68c-1.49.02-2.76-.28-3.81-.89-1.05-.61-1.85-1.48-2.4-2.62-.55-1.13-.84-2.48-.86-4.05Zm2.33-.39c.01,1.36.2,2.55.56,3.56.36,1.01.9,1.8,1.62,2.36.72.56,1.63.83,2.73.82.99-.01,1.81-.28,2.48-.8.66-.52,1.15-1.24,1.47-2.16.32-.92.48-1.98.47-3.18-.02-1.38-.21-2.57-.57-3.58-.37-1-.91-1.78-1.63-2.32s-1.63-.8-2.73-.79c-1.05.01-1.9.3-2.55.85-.65.56-1.12,1.29-1.42,2.21-.3.92-.44,1.92-.43,3.02Zm11.68,12.41l-2.47.03c-.45,0-.79-.03-1.02-.11s-.42-.21-.58-.4c-.16-.19-.36-.45-.61-.78-.31-.44-.59-.82-.84-1.16s-.49-.68-.74-1.02c-.25-.34-.53-.72-.84-1.15l2.29-.34,2.34,3.06c.08.11.2.23.37.38.16.15.32.24.47.28l1.63.45v.76Z"/>
  <path class="uuid-307f7737-afd3-44cf-887f-04ede66a6803" d="m4.35,0l3.83,10.77L12,0h4.04v14.85h-3.09v-4.06l.31-7.01-4.03,11.07h-2.11L3.1,3.79l.31,7v4.06H.33V0h4.02Z"/>
  <path class="uuid-6e2b03ef-6038-49fc-9061-68f3792d6cd1" d="m4.02,0l3.83,10.77L11.67,0h4.04v14.85h-3.09v-4.06l.31-7.01-4.03,11.07h-2.11L2.77,3.79l.31,7v4.06H0V0h4.02Z"/>
</svg>